HIERARCHY
ROOT Hips
{
	OFFSET 0.000000 0.000000 0.000000
	CHANNELS 6 Xposition Yposition Zposition Xrotation Yrotation Zrotation
	JOINT LeftUpLeg_virtual
	{
		OFFSET 0.000000 0.000000 0.000000
		CHANNELS 3 Xrotation Yrotation Zrotation
		JOINT LeftUpLeg
		{
			OFFSET 15.427100 -6.655098 0.678600
			CHANNELS 3 Xrotation Yrotation Zrotation
			JOINT LeftLeg
			{
				OFFSET 4.081073 -39.591068 13.024000
				CHANNELS 3 Xrotation Yrotation Zrotation
				JOINT LeftFoot
				{
					OFFSET -4.081074 -37.707932 -15.979700
					CHANNELS 3 Xrotation Yrotation Zrotation
					JOINT LeftToeBase
					{
						OFFSET 5.346399 -15.068900 20.645000
						CHANNELS 3 Xrotation Yrotation Zrotation
						JOINT LeftToe_End
						{
							OFFSET 2.754700 0.931300 11.300900
							CHANNELS 3 Xrotation Yrotation Zrotation
							End Site
							{
								OFFSET 0 0 0
							}
						}
					}
				}
			}
		}
	}
	JOINT RightUpLeg_virtual
	{
		OFFSET 0.000000 0.000000 0.000000
		CHANNELS 3 Xrotation Yrotation Zrotation
		JOINT RightUpLeg
		{
			OFFSET -15.569500 -6.655098 0.678600
			CHANNELS 3 Xrotation Yrotation Zrotation
			JOINT RightLeg
			{
				OFFSET -4.081825 -39.591045 13.023800
				CHANNELS 3 Xrotation Yrotation Zrotation
				JOINT RightFoot
				{
					OFFSET 4.081824 -37.707954 -15.979600
					CHANNELS 3 Xrotation Yrotation Zrotation
					JOINT RightToeBase
					{
						OFFSET -5.346400 -15.068900 20.645000
						CHANNELS 3 Xrotation Yrotation Zrotation
						JOINT RightToe_End
						{
							OFFSET -2.754700 0.931300 11.300900
							CHANNELS 3 Xrotation Yrotation Zrotation
							End Site
							{
								OFFSET 0 0 0
							}
						}
					}
				}
			}
		}
	}
	JOINT Spine_virtual
	{
		OFFSET 0.000000 0.000000 0.000000
		CHANNELS 3 Xrotation Yrotation Zrotation
		JOINT Spine
		{
			OFFSET -0.279200 12.230698 -2.892100
			CHANNELS 3 Xrotation Yrotation Zrotation
			JOINT Spine1
			{
				OFFSET -0.232667 10.192268 -1.242267
				CHANNELS 3 Xrotation Yrotation Zrotation
				JOINT Spine1_split
				{
					OFFSET -0.232667 10.192268 -1.242267
					CHANNELS 3 Xrotation Yrotation Zrotation
					JOINT Spine2
					{
						OFFSET -0.232667 10.192268 -1.242267
						CHANNELS 3 Xrotation Yrotation Zrotation
						JOINT Neck_virtual
						{
							OFFSET 0.000000 0.000000 0.000000
							CHANNELS 3 Xrotation Yrotation Zrotation
							JOINT Neck
							{
								OFFSET -0.418800 17.814194 8.416900
								CHANNELS 3 Xrotation Yrotation Zrotation
								JOINT Head
								{
									OFFSET 0.000000 7.031097 3.806800
									CHANNELS 3 Xrotation Yrotation Zrotation
									JOINT HeadTop_End
									{
										OFFSET 0.000000 24.646606 12.978600
										CHANNELS 3 Xrotation Yrotation Zrotation
										End Site
										{
											OFFSET 0 0 0
										}
									}
								}
							}
						}
						JOINT LeftShoulder_virtual
						{
							OFFSET 0.000000 0.000000 0.000000
							CHANNELS 3 Xrotation Yrotation Zrotation
							JOINT LeftShoulder
							{
								OFFSET 8.476499 7.247704 -3.868750
								CHANNELS 3 Xrotation Yrotation Zrotation
								JOINT LeftShoulder_split
								{
									OFFSET 8.476499 7.247704 -3.868750
									CHANNELS 3 Xrotation Yrotation Zrotation
									JOINT LeftArm
									{
										OFFSET 9.308998 -2.777710 0.208600
										CHANNELS 3 Xrotation Yrotation Zrotation
										JOINT LeftForeArm
										{
											OFFSET 29.972298 0.000000 0.000000
											CHANNELS 3 Xrotation Yrotation Zrotation
											JOINT LeftHand
											{
												OFFSET 26.026505 0.000000 0.000000
												CHANNELS 3 Xrotation Yrotation Zrotation
												End Site
												{
													OFFSET 0 0 0
												}
											}
										}
									}
								}
							}
						}
						JOINT RightShoulder_virtual
						{
							OFFSET 0.000000 0.000000 0.000000
							CHANNELS 3 Xrotation Yrotation Zrotation
							JOINT RightShoulder
							{
								OFFSET -7.570500 7.247704 -3.868750
								CHANNELS 3 Xrotation Yrotation Zrotation
								JOINT RightShoulder_split
								{
									OFFSET -7.570500 7.247704 -3.868750
									CHANNELS 3 Xrotation Yrotation Zrotation
									JOINT RightArm
									{
										OFFSET -9.308998 -2.777710 0.208500
										CHANNELS 3 Xrotation Yrotation Zrotation
										JOINT RightForeArm
										{
											OFFSET -29.972300 0.000000 0.000000
											CHANNELS 3 Xrotation Yrotation Zrotation
											JOINT RightHand
											{
												OFFSET -26.026505 0.000000 0.000000
												CHANNELS 3 Xrotation Yrotation Zrotation
												End Site
												{
													OFFSET 0 0 0
												}
											}
										}
									}
								}
							}
						}
					}
				}
			}
		}
	}
}
MOTION
Frames: 7
Frame Time: 0.03333333
0.778736 88.874184 -0.379040 0.000000 0.000000 0.000000 -1.583988 -26.936562 0.814453 -23.382415 24.754284 13.340758 23.605026 7.399919 11.392327 -3.098621 1.503119 -15.547215 1.305357 0.042566 -2.081003 0.000000 0.000000 0.000000 -2.180553 -25.917761 0.910163 -13.904309 -19.612955 -8.435505 24.315695 -0.419558 -10.328558 -13.246249 -1.967231 11.824318 -0.759458 0.108036 0.086603 0.000000 0.000000 0.000000 -0.828390 -27.910004 0.770033 3.823894 -2.190883 0.771222 0.430425 -0.917694 0.224987 1.022472 -0.280710 0.259520 0.000000 0.000000 0.000000 0.680949 -1.000395 0.239564 -1.601440 1.682287 2.977464 17.925078 24.596659 -13.041643 0.000000 0.000000 0.000000 1.153548 -0.969890 0.244187 -0.538850 2.579355 3.443458 -1.581551 -0.039686 -0.152828 -53.311064 -2.076053 -48.357995 -10.790293 -86.424719 -10.169620 0.000000 0.000000 0.000000 1.983606 -0.639950 0.100687 -1.065807 -10.074151 9.092959 0.867713 2.079338 0.126980 -66.332195 64.229767 82.305248 -12.926469 85.400109 12.852755 0.000000 0.000000 0.000000 
0.770473 88.865929 -0.391945 0.000000 0.000000 0.000000 -1.593557 -26.946568 0.811720 -23.392450 24.779696 13.346576 23.612416 7.374388 11.398038 -3.103030 1.490166 -15.553328 1.299235 0.040536 -2.070302 0.000000 0.000000 0.000000 -2.187966 -25.924738 0.906945 -13.896125 -19.622550 -8.437382 24.295073 -0.435273 -10.317178 -13.244349 -1.972283 11.810545 -0.760374 0.109180 0.085931 0.000000 0.000000 0.000000 -0.837164 -27.909517 0.761840 3.828319 -2.194545 0.777214 0.434146 -0.917942 0.223847 1.021626 -0.296197 0.260163 0.000000 0.000000 0.000000 0.679770 -1.000615 0.236038 -1.599113 1.686071 2.984595 17.926381 24.589603 -13.042124 0.000000 0.000000 0.000000 1.158072 -0.972197 0.240433 -0.541936 2.564837 3.426254 -1.568396 -0.024755 -0.151086 -53.280697 -2.085560 -48.401739 -10.527902 -86.454417 -9.918475 0.000000 0.000000 0.000000 1.987043 -0.639569 0.099503 -1.065667 -10.074684 9.103400 0.881051 2.098999 0.136714 -66.290968 64.219747 82.284464 -12.810683 85.346888 12.741735 0.000000 0.000000 0.000000 
0.760969 88.855118 -0.406178 0.000000 0.000000 0.000000 -1.602297 -26.947652 0.801525 -23.417131 24.821951 13.360990 23.613820 7.328224 11.402518 -3.110000 1.466053 -15.542497 1.294040 0.036926 -2.062137 0.000000 0.000000 0.000000 -2.193864 -25.918111 0.897751 -13.879912 -19.620581 -8.436965 24.283609 -0.459940 -10.295022 -13.236574 -1.979707 11.800564 -0.770497 0.111625 0.082982 0.000000 0.000000 0.000000 -0.847187 -27.906510 0.749487 3.832674 -2.198978 0.789448 0.439109 -0.918200 0.222044 1.021326 -0.312377 0.259214 0.000000 0.000000 0.000000 0.678622 -1.002630 0.231572 -1.600589 1.697031 2.997081 17.931526 24.589405 -13.048778 0.000000 0.000000 0.000000 1.160834 -0.976323 0.235571 -0.544584 2.563721 3.393170 -1.566254 0.001735 -0.127769 -53.273498 -2.077902 -48.493903 -10.028653 -86.453147 -9.432969 0.000000 0.000000 0.000000 1.989175 -0.641120 0.098117 -1.061742 -10.078451 9.129601 0.877661 2.107165 0.132537 -66.219155 64.215267 82.235505 -12.741685 85.304555 12.683886 0.000000 0.000000 0.000000 
0.751750 88.845505 -0.416237 0.000000 0.000000 0.000000 -1.608755 -26.939315 0.786296 -23.457899 24.872972 13.383895 23.610393 7.267260 11.405751 -3.108176 1.436122 -15.511515 1.284489 0.032360 -2.058357 0.000000 0.000000 0.000000 -2.196883 -25.899654 0.884955 -13.858787 -19.605348 -8.435982 24.276500 -0.489419 -10.265704 -13.225989 -1.987988 11.795335 -0.785753 0.114849 0.078719 0.000000 0.000000 0.000000 -0.855422 -27.898495 0.736066 3.835270 -2.203517 0.806587 0.445258 -0.917809 0.220511 1.017146 -0.321386 0.255335 0.000000 0.000000 0.000000 0.678728 -1.005819 0.227667 -1.605076 1.711557 3.010167 17.940644 24.592829 -13.059504 0.000000 0.000000 0.000000 1.162105 -0.981189 0.230334 -0.546909 2.574435 3.359624 -1.570293 0.037242 -0.087454 -53.276510 -2.050444 -48.617608 -9.394608 -86.429876 -8.815536 0.000000 0.000000 0.000000 1.989545 -0.644307 0.096809 -1.055453 -10.089623 9.164983 0.865955 2.105453 0.116316 -66.135957 64.220396 82.168043 -12.762020 85.290649 12.719531 0.000000 0.000000 0.000000 
0.743118 88.836853 -0.427181 0.000000 0.000000 0.000000 -1.612763 -26.920977 0.769048 -23.514378 24.926656 13.410615 23.604982 7.198634 11.408128 -3.090882 1.410256 -15.457309 1.272291 0.027514 -2.061049 0.000000 0.000000 0.000000 -2.198178 -25.870798 0.871030 -13.839169 -19.579010 -8.435084 24.273239 -0.522982 -10.231956 -13.216530 -1.997993 11.789502 -0.790245 0.118119 0.075444 0.000000 0.000000 0.000000 -0.860692 -27.883450 0.724543 3.836235 -2.207913 0.825267 0.453074 -0.917188 0.219856 1.013103 -0.328884 0.251716 0.000000 0.000000 0.000000 0.680485 -1.009495 0.225373 -1.611021 1.727032 3.018305 17.951021 24.595040 -13.070520 0.000000 0.000000 0.000000 1.162685 -0.986125 0.225762 -0.548652 2.592153 3.344857 -1.579870 0.074926 -0.056354 -53.272371 -2.002696 -48.752951 -8.837417 -86.406968 -8.276342 0.000000 0.000000 0.000000 1.988961 -0.648152 0.096310 -1.048339 -10.109821 9.200017 0.852493 2.103334 0.095397 -66.056576 64.243865 82.096620 -12.861005 85.310524 12.834365 0.000000 0.000000 0.000000 
0.735157 88.827148 -0.441406 0.000000 0.000000 0.000000 -1.614167 -26.894886 0.753849 -23.586561 24.979192 13.435394 23.602502 7.129437 11.410335 -3.061211 1.396516 -15.383191 1.266455 0.023140 -2.072241 0.000000 0.000000 0.000000 -2.197797 -25.837270 0.859842 -13.826816 -19.545773 -8.434931 24.271589 -0.559430 -10.196802 -13.212542 -2.010221 11.778489 -0.776091 0.120737 0.074690 0.000000 0.000000 0.000000 -0.865934 -27.859737 0.715344 3.836915 -2.211599 0.840907 0.462924 -0.916439 0.219980 1.010861 -0.336227 0.252191 0.000000 0.000000 0.000000 0.683884 -1.012934 0.225403 -1.618347 1.740463 3.019151 17.955809 24.589630 -13.075733 0.000000 0.000000 0.000000 1.164304 -0.990552 0.222373 -0.549751 2.609976 3.366801 -1.576936 0.107554 -0.029835 -53.250740 -1.931147 -48.881017 -8.471268 -86.416189 -7.932110 0.000000 0.000000 0.000000 1.988628 -0.651420 0.097063 -1.042452 -10.138932 9.232218 0.839831 2.104469 0.073453 -65.991676 64.288302 82.030087 -12.991355 85.350713 12.977150 0.000000 0.000000 0.000000 
0.729444 88.813812 -0.461376 0.000000 0.000000 0.000000 -1.612688 -26.863890 0.743470 -23.670212 25.027801 13.452275 23.607909 7.060273 11.414211 -3.026692 1.394295 -15.301611 1.267338 0.019400 -2.089907 0.000000 0.000000 0.000000 -2.196027 -25.800773 0.853356 -13.826910 -19.513594 -8.437787 24.278546 -0.598030 -10.162482 -13.214534 -2.024246 11.762114 -0.752347 0.122152 0.076136 0.000000 0.000000 0.000000 -0.872126 -27.830166 0.707298 3.839960 -2.213631 0.848755 0.475858 -0.915547 0.219912 1.015410 -0.337900 0.256866 0.000000 0.000000 0.000000 0.687985 -1.015055 0.227429 -1.627178 1.748469 3.013282 17.951752 24.576042 -13.070462 0.000000 0.000000 0.000000 1.168364 -0.993384 0.220365 -0.549741 2.621003 3.439317 -1.568622 0.131338 -0.016712 -53.209311 -1.832784 -48.983142 -8.392060 -86.471137 -7.876245 0.000000 0.000000 0.000000 1.989375 -0.652667 0.099123 -1.039310 -10.176907 9.264352 0.832638 2.106863 0.059426 -65.934275 64.350791 81.965139 -13.127373 85.405000 13.119187 0.000000 0.000000 0.000000 
